<svg width="0" height="0" class="hidden" xmlns="http://www.w3.org/2000/svg">
    <symbol id="home" viewBox="0 0 24 24" xmlns="http://www.w3.org/2000/svg">
        <path d="M2 22H22" stroke-width="1.5" stroke-miterlimit="10" stroke-linecap="round"
            stroke-linejoin="round" />
        <path
            d="M3 9.96999C3 9.35999 3.29 8.78004 3.77 8.40004L10.77 2.95003C11.49 2.39003 12.5 2.39003 13.23 2.95003L20.23 8.39003C20.72 8.77003 21 9.34999 21 9.96999V22"
            stroke-width="1.5" stroke-miterlimit="10" stroke-linecap="round" stroke-linejoin="round" />
        <path d="M2.94922 22L2.97923 14.03" stroke-width="1.5" stroke-miterlimit="10"
            stroke-linecap="round" stroke-linejoin="round" />
        <path d="M15.5 11H8.5C7.67 11 7 11.67 7 12.5V22H17V12.5C17 11.67 16.33 11 15.5 11Z"
            stroke-width="1.5" stroke-miterlimit="10" stroke-linecap="round" stroke-linejoin="round" />
        <path d="M10 16.25V17.75" stroke-width="1.5" stroke-miterlimit="10" stroke-linecap="round"
            stroke-linejoin="round" />
        <path d="M10.5 7.5H13.5" stroke-width="1.5" stroke-miterlimit="10" stroke-linecap="round"
            stroke-linejoin="round" />
    </symbol>
    <symbol id="schedule" viewBox="0 0 24 24" xmlns="http://www.w3.org/2000/svg">
        <path d="M8 2V5" stroke-width="1.5" stroke-miterlimit="10" stroke-linecap="round"
            stroke-linejoin="round" />
        <path d="M16 2V5" stroke-width="1.5" stroke-miterlimit="10" stroke-linecap="round"
            stroke-linejoin="round" />
        <path d="M3.5 9.08984H20.5" stroke-width="1.5" stroke-miterlimit="10" stroke-linecap="round"
            stroke-linejoin="round" />
        <path
            d="M3 13.01V8.5C3 5.5 4.5 3.5 8 3.5H16C19.5 3.5 21 5.5 21 8.5V17C21 20 19.5 22 16 22H8C4.5 22 3 20 3 17"
            stroke-width="1.5" stroke-miterlimit="10" stroke-linecap="round" stroke-linejoin="round" />
        <path d="M15.6937 13.7H15.7027" stroke-width="2" stroke-linecap="round"
            stroke-linejoin="round" />
        <path d="M15.6937 16.7H15.7027" stroke-width="2" stroke-linecap="round"
            stroke-linejoin="round" />
        <path d="M11.9945 13.7H12.0035" stroke-width="2" stroke-linecap="round"
            stroke-linejoin="round" />
        <path d="M11.9945 16.7H12.0035" stroke-width="2" stroke-linecap="round"
            stroke-linejoin="round" />
        <path d="M8.29529 13.7H8.30427" stroke-width="2" stroke-linecap="round"
            stroke-linejoin="round" />
        <path d="M8.29529 16.7H8.30427" stroke-width="2" stroke-linecap="round"
            stroke-linejoin="round" />
    </symbol>
    <symbol id="users" viewBox="0 0 24 24" xmlns="http://www.w3.org/2000/svg">
        <path
            d="M12.6805 3.96C13.1605 4.67 13.4405 5.52 13.4405 6.44C13.4305 8.84 11.5405 10.79 9.16055 10.87C9.06055 10.86 8.94055 10.86 8.83055 10.87C6.45055 10.79 4.56055 8.84 4.56055 6.44C4.56055 3.99 6.54055 2 9.00055 2"
            stroke-width="1.5" stroke-linecap="round" stroke-linejoin="round" />
        <path
            d="M16.4093 4C18.3493 4 19.9093 5.57 19.9093 7.5C19.9093 9.39 18.4093 10.93 16.5393 11C16.4593 10.99 16.3693 10.99 16.2793 11"
            stroke-width="1.5" stroke-linecap="round" stroke-linejoin="round" />
        <path
            d="M4.1607 14.56C1.7407 16.18 1.7407 18.82 4.1607 20.43C6.9107 22.27 11.4207 22.27 14.1707 20.43C16.5907 18.81 16.5907 16.17 14.1707 14.56C11.4307 12.73 6.9207 12.73 4.1607 14.56Z"
            stroke-width="1.5" stroke-linecap="round" stroke-linejoin="round" />
        <path
            d="M18.3398 20C19.0598 19.85 19.7398 19.56 20.2998 19.13C21.8598 17.96 21.8598 16.03 20.2998 14.86C19.7498 14.44 19.0798 14.16 18.3698 14"
            stroke-width="1.5" stroke-linecap="round" stroke-linejoin="round" />
    </symbol>
    <symbol id="university" viewBox="0 0 24 24" xmlns="http://www.w3.org/2000/svg">
        <path
            d="M2.63 5.75006C2.28 5.89006 2 6.31006 2 6.68006V10.0001C2 10.5501 2.45 11.0001 3 11.0001H21C21.55 11.0001 22 10.5501 22 10.0001V6.68006C22 6.31006 21.72 5.89006 21.37 5.75006L12.37 2.15009C12.17 2.07009 11.83 2.07009 11.63 2.15009L6.78998 4.09009"
            stroke-width="1.5" stroke-miterlimit="10" stroke-linecap="round" stroke-linejoin="round" />
        <path d="M22 22H2V19C2 18.45 2.45 18 3 18H21C21.55 18 22 18.45 22 19V22Z" stroke-width="1.5"
            stroke-miterlimit="10" stroke-linecap="round" stroke-linejoin="round" />
        <path d="M4 18V11" stroke-width="1.5" stroke-miterlimit="10" stroke-linecap="round"
            stroke-linejoin="round" />
        <path d="M8 18V11" stroke-width="1.5" stroke-miterlimit="10" stroke-linecap="round"
            stroke-linejoin="round" />
        <path d="M12 18V11" stroke-width="1.5" stroke-miterlimit="10" stroke-linecap="round"
            stroke-linejoin="round" />
        <path d="M16 18V11" stroke-width="1.5" stroke-miterlimit="10" stroke-linecap="round"
            stroke-linejoin="round" />
        <path d="M20 18V11" stroke-width="1.5" stroke-miterlimit="10" stroke-linecap="round"
            stroke-linejoin="round" />
        <path d="M1 22H23" stroke-width="1.5" stroke-miterlimit="10" stroke-linecap="round"
            stroke-linejoin="round" />
        <path
            d="M12 8.5C12.8284 8.5 13.5 7.82843 13.5 7C13.5 6.17157 12.8284 5.5 12 5.5C11.1716 5.5 10.5 6.17157 10.5 7C10.5 7.82843 11.1716 8.5 12 8.5Z"
            stroke-width="1.5" stroke-miterlimit="10" stroke-linecap="round" stroke-linejoin="round" />
    </symbol>
    <symbol id="settings" viewBox="0 0 24 24" xmlns="http://www.w3.org/2000/svg">
        <path
            d="M15 12C15 10.34 13.66 9 12 9C10.34 9 9 10.34 9 12C9 13.66 10.34 15 12 15C12.41 15 12.81 14.92 13.17 14.76"
            stroke-width="1.5" stroke-miterlimit="10" stroke-linecap="round" stroke-linejoin="round" />
        <path
            d="M6.88086 20.5801L7.97086 21.2101C8.76086 21.6801 9.78086 21.4001 10.2509 20.6101L10.3609 20.4201C11.2609 18.8501 12.7409 18.8501 13.6509 20.4201L13.7609 20.6101C14.2309 21.4001 15.2509 21.6801 16.0409 21.2101L17.7709 20.2201C18.6809 19.7001 18.9909 18.5301 18.4709 17.6301C17.5609 16.0601 18.3009 14.7801 20.1109 14.7801C21.1509 14.7801 22.0109 13.9301 22.0109 12.8801V11.1201C22.0109 10.0801 21.1609 9.22007 20.1109 9.22007C19.1009 9.22007 18.4209 8.82007 18.1809 8.19007C17.9909 7.70007 18.0709 7.06007 18.4709 6.37007C18.9909 5.46007 18.6809 4.30007 17.7709 3.78007L16.9609 3.32007"
            stroke-width="1.5" stroke-miterlimit="10" stroke-linecap="round" stroke-linejoin="round" />
        <path
            d="M13.64 3.57994C12.74 5.14994 11.26 5.14994 10.35 3.57994L10.24 3.38994C9.78 2.59994 8.76 2.31994 7.97 2.78994L6.24 3.77994C5.33 4.29994 5.02 5.46994 5.54 6.37994C6.45 7.93994 5.71 9.21994 3.9 9.21994C2.86 9.21994 2 10.0699 2 11.1199V12.8799C2 13.9199 2.85 14.7799 3.9 14.7799C5.71 14.7799 6.45 16.0599 5.54 17.6299"
            stroke-width="1.5" stroke-miterlimit="10" stroke-linecap="round" stroke-linejoin="round" />
    </symbol>
    <symbol id="fullscreen-exit" viewBox="0 0 24 24" xmlns="http://www.w3.org/2000/svg">
        <path
            d="M7 9C8.10457 9 9 8.10457 9 7V3C9 2.44772 8.55228 2 8 2C7.44772 2 7 2.44772 7 3V7H3C2.44772 7 2 7.44772 2 8C2 8.55228 2.44772 9 3 9H7Z" />
        <path
            d="M17 9C15.8954 9 15 8.10457 15 7V3C15 2.44772 15.4477 2 16 2C16.5523 2 17 2.44772 17 3V7H21C21.5523 7 22 7.44772 22 8C22 8.55228 21.5523 9 21 9H17Z" />
        <path
            d="M17 15C15.8954 15 15 15.8954 15 17V21C15 21.5523 15.4477 22 16 22C16.5523 22 17 21.5523 17 21V17H21C21.5523 17 22 16.5523 22 16C22 15.4477 21.5523 15 21 15H17Z" />
        <path
            d="M9 17C9 15.8954 8.10457 15 7 15H3C2.44772 15 2 15.4477 2 16C2 16.5523 2.44772 17 3 17H7V21C7 21.5523 7.44772 22 8 22C8.55228 22 9 21.5523 9 21V17Z" />
    </symbol>
    <symbol id="theme" viewBox="0 0 24 24" xmlns="http://www.w3.org/2000/svg">
        <path
            d="M9.87031 5.6701L6.45031 7.75012L4.89031 5.19012C4.32031 4.25012 4.62031 3.01012 5.56031 2.44012C6.50031 1.87012 7.74031 2.1701 8.31031 3.1101L9.87031 5.6701Z"
            stroke-width="1.5" stroke-linecap="round" stroke-linejoin="round" />
        <path
            d="M9.19913 20.4401C9.85913 21.7901 11.4591 22.26 12.7391 21.47L19.1691 17.5601C20.4591 16.7801 20.7691 15.1501 19.8791 13.9401L17.1091 10.2001C15.9091 8.59009 13.6491 8.04005 11.8191 9.16005L8.65914 11.0801C6.81914 12.2001 6.25913 14.4601 7.14913 16.2601"
            stroke-width="1.5" stroke-linecap="round" stroke-linejoin="round" />
        <path d="M10.7574 5.09791L5.63281 8.21851L7.71321 11.6349L12.8378 8.51431L10.7574 5.09791Z"
            stroke-width="1.5" stroke-linecap="round" stroke-linejoin="round" />
        <path d="M14.3105 16.8101L15.9606 19.5201" stroke-width="1.5"
            stroke-linecap="round" stroke-linejoin="round" />
        <path d="M11.75 18.3701L13.4 21.0801" stroke-width="1.5"
            stroke-linecap="round" stroke-linejoin="round" />
        <path d="M16.8691 15.25L18.5191 17.96" stroke-width="1.5"
            stroke-linecap="round" stroke-linejoin="round" />
    </symbol>
    <symbol id="moon" viewBox="0 0 24 24" xmlns="http://www.w3.org/2000/svg">
        <path
            d="M4.18073 5.37996C2.67073 7.29996 1.84073 9.75996 2.03073 12.42C2.39073 17.57 6.76073 21.76 11.9907 21.99C15.6807 22.15 18.9807 20.43 20.9607 17.72C21.7807 16.61 21.3407 15.87 19.9707 16.12C19.3007 16.24 18.6107 16.29 17.8907 16.26C13.0007 16.06 9.00073 11.97 8.98073 7.13996C8.97073 5.83996 9.24073 4.60996 9.73073 3.48996C10.2707 2.24996 9.62073 1.65996 8.37073 2.18996"
            stroke-width="1.5" stroke-linecap="round" stroke-linejoin="round" />
    </symbol>
    <symbol id="sun" viewBox="0 0 24 24" xmlns="http://www.w3.org/2000/svg">
        <path
            d="M7 7.85C6.06 8.98 5.5 10.42 5.5 12C5.5 15.59 8.41 18.5 12 18.5C15.59 18.5 18.5 15.59 18.5 12C18.5 8.41 15.59 5.5 12 5.5"
            stroke-width="1.5" stroke-linecap="round" stroke-linejoin="round" />
        <path
            d="M19.14 19.14L19.01 19.01M19.01 4.99L19.14 4.86L19.01 4.99ZM4.86 19.14L4.99 19.01L4.86 19.14ZM12 2.08V2V2.08ZM12 22V21.92V22ZM2.08 12H2H2.08ZM22 12H21.92H22ZM4.99 4.99L4.86 4.86L4.99 4.99Z"
            stroke-width="2" stroke-linecap="round" stroke-linejoin="round" />
    </symbol>
    <symbol id="fullscreen" viewBox="0 0 24 24" xmlns="http://www.w3.org/2000/svg">
        <path
            d="M4 2C2.89543 2 2 2.89543 2 4V8C2 8.55228 2.44772 9 3 9C3.55228 9 4 8.55228 4 8V4H8C8.55228 4 9 3.55228 9 3C9 2.44772 8.55228 2 8 2H4Z" />
        <path
            d="M20 2C21.1046 2 22 2.89543 22 4V8C22 8.55228 21.5523 9 21 9C20.4477 9 20 8.55228 20 8V4H16C15.4477 4 15 3.55228 15 3C15 2.44772 15.4477 2 16 2H20Z" />
        <path
            d="M20 22C21.1046 22 22 21.1046 22 20V16C22 15.4477 21.5523 15 21 15C20.4477 15 20 15.4477 20 16V20H16C15.4477 20 15 20.4477 15 21C15 21.5523 15.4477 22 16 22H20Z" />
        <path
            d="M2 20C2 21.1046 2.89543 22 4 22H8C8.55228 22 9 21.5523 9 21C9 20.4477 8.55228 20 8 20H4V16C4 15.4477 3.55228 15 3 15C2.44772 15 2 15.4477 2 16V20Z" />
    </symbol>
</svg>
